Coordinates
version=1
nRows=4
nColumns=63
inDegrees=yes

Units are S.I. units (second, meters, Newtons, ...)
If the header above contains a line with 'inDegrees', this indicates whether rotational values are in degrees (yes) or radians (no).

endheader
time	pelvis_tilt	pelvis_list	pelvis_rotation	pelvis_tx	pelvis_ty	pelvis_tz	hip_flexion_r	hip_adduction_r	hip_rotation_r	knee_angle_r	knee_angle_r_beta	ankle_angle_r	subtalar_angle_r	mtp_angle_r	hip_flexion_l	hip_adduction_l	hip_rotation_l	knee_angle_l	knee_angle_l_beta	ankle_angle_l	subtalar_angle_l	mtp_angle_l	L5_S1_Flex_Ext	L5_S1_Lat_Bending	L5_S1_axial_rotation	L4_L5_Flex_Ext	L4_L5_Lat_Bending	L4_L5_axial_rotation	L3_L4_Flex_Ext	L3_L4_Lat_Bending	L3_L4_axial_rotation	L2_L3_Flex_Ext	L2_L3_Lat_Bending	L2_L3_axial_rotation	L1_L2_Flex_Ext	L1_L2_Lat_Bending	L1_L2_axial_rotation	L1_T12_Flex_Ext	L1_T12_Lat_Bending	L1_T12_axial_rotation	Abs_r3	Abs_r2	Abs_r1	Abs_t1	Abs_t2	neck_flexion	neck_bending	neck_rotation	arm_flex_r	arm_add_r	arm_rot_r	elbow_flex_r	pro_sup_r	wrist_flex_r	wrist_dev_r	arm_flex_l	arm_add_l	arm_rot_l	elbow_flex_l	pro_sup_l	wrist_flex_l	wrist_dev_l
      0.03333333	     -1.48460704	      4.38646519	    -89.29186974	      2.44870417	      0.88813113	      1.00132375	      1.36535415	      7.99330066	     39.93537308	      0.43024992	      0.00750928	   -189.24238267	    -19.89996118	      0.00000000	     16.66578114	      2.43277612	    -39.93284275	      0.22962620	      0.00400773	   -148.75226295	     19.90488847	      0.00000000	     -0.02221452	      0.11332678	    -16.93270680	     -0.04125459	      0.15072461	    -17.99100098	     -0.03649624	      0.27554273	    -17.99100098	     -0.02538898	      0.27554273	    -14.81611845	     -0.02062840	      0.23109596	    -13.75782428	     -0.01269338	      0.17554318	    -12.69953010	     -0.15867610	      1.28197517	    -94.17463541	      0.00000000	      0.00000000	     -0.00000000	      0.00000000	     -0.00000000	    -12.35111587	      1.27996169	    -10.90331434	     29.85468516	     32.54929203	      0.00000000	      5.15948776	    -15.53359524	     -5.76606764	      0.33877695	     21.61114732	     45.44254998	      0.00000000	      5.15948776
      0.06666667	     -1.00508403	      4.35362104	    -88.09643354	      2.45314276	      0.89009000	      1.00376903	      1.10526747	      7.24800863	     39.93403466	      0.36190065	      0.00631636	   -189.44959051	    -19.89880941	      0.00000000	     16.21491053	      3.87239436	    -39.92881452	      0.15786916	      0.00275534	   -149.67238199	     19.89695166	      0.00000000	     -0.01530210	      0.16092540	    -17.25767489	     -0.02841752	      0.21403078	    -18.33627957	     -0.02513981	      0.39127401	    -18.33627957	     -0.01748876	      0.39127401	    -15.10046553	     -0.01420953	      0.32815907	    -14.02186085	     -0.00874362	      0.24927344	    -12.94325617	     -0.10930134	      1.82042028	    -95.98201044	      0.00000000	      0.00000000	     -0.00000000	      0.00000000	     -0.00000000	    -12.19334988	      2.43884462	    -16.75711376	     29.65943642	     31.95644290	      0.00000000	      5.12977846	    -15.52020377	     -6.54254613	      4.70410057	     22.10706163	     47.09657442	      0.00000000	      5.12977846
      0.10000000	     -0.63241488	      4.42401617	    -87.07212989	      2.45670297	      0.89167288	      1.00569346	      0.97946582	      6.67859318	     39.93274132	      0.32891215	      0.00574060	   -189.75597408	    -19.89850280	      0.00000000	     15.91811747	      5.00340038	    -39.92444232	      0.12562396	      0.00219255	   -150.16183471	     19.88856852	      0.00000000	     -0.00696197	      0.21095429	    -17.54756083	     -0.01292907	      0.28056921	    -18.64428339	     -0.01143782	      0.51291427	    -18.64428339	     -0.00795683	      0.51291427	    -15.35411573	     -0.00646488	      0.43017799	    -14.25739318	     -0.00397807	      0.32676820	    -13.16067063	     -0.04972865	      2.38635715	    -97.59426909	      0.00000000	      0.00000000	     -0.00000000	      0.00000000	     -0.00000000	    -11.97342389	      2.42257133	    -17.61311880	     29.11062346	     31.86101795	      0.00000000	      5.12796340	    -15.72080110	     -6.65592428	      5.22924595	     22.79755249	     47.27648074	      0.00000000	      5.12796340
      0.13333333	     -0.32698067	      4.47091413	    -86.94516893	      2.45855907	      0.89293502	      1.00707126	      0.92123097	      6.20601209	     39.93334070	      0.32260537	      0.00563053	   -189.78552600	    -19.89865787	      0.00000000	     15.73449450	      5.67462702	    -39.92226385	      0.10567143	      0.00184431	   -150.27569666	     19.88310784	      0.00000000	      0.00048355	      0.24721411	    -17.60604747	      0.00089800	      0.32879477	    -18.70642544	      0.00079442	      0.60107639	    -18.70642544	      0.00055265	      0.60107639	    -15.40529154	      0.00044902	      0.50411902	    -14.30491357	      0.00027630	      0.38293466	    -13.20453560	      0.00345395	      2.79653549	    -97.91955421	      0.00000000	      0.00000000	     -0.00000000	      0.00000000	     -0.00000000	    -11.94295581	      2.33036677	    -17.88638039	     28.98761342	     31.82838333	      0.00000000	      5.12760947	    -15.61743402	     -6.67265000	      5.37835727	     23.01307452	     47.32526202	      0.00000000	      5.12760947
